<?xml version="1.0"?>
<svg xmlns="http://www.w3.org/2000/svg" xmlns:xlink="http://www.w3.org/1999/xlink" version="1.1" id="Layer_1" x="0px" y="0px" viewBox="0 0 512 512" style="enable-background:new 0 0 512 512;" xml:space="preserve" width="512px" height="512px" class=""><g transform="matrix(6.12323e-17 1 -1 6.12323e-17 512 0)"><path d="M409.6,247.467h-82.432L264.277,6.4C263.253,2.645,259.925,0,256,0c-3.925,0-7.253,2.645-8.277,6.4l-62.891,241.067H102.4  c-4.693,0-8.533,3.84-8.533,8.533c0,4.693,3.84,8.533,8.533,8.533h77.995l-35.072,134.4c-1.024,4.011,0.939,8.107,4.693,9.899  c3.669,1.707,8.192,0.512,10.581-2.816l86.869-123.136v220.587c0,4.693,3.84,8.533,8.533,8.533c4.693,0,8.533-3.84,8.533-8.533  V282.88l86.869,123.136c1.707,2.304,4.267,3.584,6.997,3.584c1.195,0,2.475-0.256,3.584-0.768c3.755-1.792,5.717-5.888,4.693-9.899  l-35.072-134.4H409.6c4.693,0,8.533-3.84,8.533-8.533C418.133,251.307,414.293,247.467,409.6,247.467z M247.467,253.269  l-73.728,104.533l73.728-282.795V253.269z M338.261,357.803l-73.728-104.533V75.008L338.261,357.803z" data-original="#000000" class="" style="fill:#000000"/><polygon style="fill:#797FF7" points="247.467,75.008 247.467,253.269 173.739,357.803 " data-original="#4CAF50" class="active-path" data-old_color="#4CAF50"/><polygon style="fill:#797FF7" points="338.261,357.803 264.533,253.269 264.533,75.008 " data-original="#388E3C" class="" data-old_color="#388E3C"/></g> </svg>
