<?xml version="1.0"?>
<svg xmlns="http://www.w3.org/2000/svg" id="Layer_1" enable-background="new 0 0 512 512" height="512px" viewBox="0 0 512 512" width="512px" class=""><g><path d="m476.148 441.518-82.666.041c-17.521.009-34.235 7.362-46.081 20.273-49.151 53.573-133.633 53.553-182.759-.043l-.032-.035c-11.853-12.932-28.59-20.295-46.132-20.295h-82.615c-27.58 0-35.932-37.729-10.965-49.536l91.113-45.923h279.975l90.673 45.778c25.421 11.438 17.33 49.727-10.511 49.74z" fill="#ffc144" data-original="#FFC144" class="" style="fill:#1CA7EC" data-old_color="#ffc144"/><path d="m395.986 350s-46.996 20-139.988 20-139.988-20-139.988-20v-248c0-50.81 41.186-92 91.992-92h95.992c50.806 0 91.992 41.19 91.992 92z" fill="#ffda8f" data-original="#FFDA8F" class="" style="fill:#797FF7" data-old_color="#ffda8f"/><g fill="#ffc144"><path d="m116.011 300h-19.998c-11.045 0-19.998-8.954-19.998-20v-160c0-11.046 8.954-20 19.998-20h19.998z" data-original="#FFC144" class="" style="fill:#1CA7EC" data-old_color="#FFC144"/><path d="m415.984 300h-19.998v-200h19.998c11.045 0 19.998 8.954 19.998 20v160c.001 11.046-8.953 20-19.998 20z" data-original="#FFC144" class="" style="fill:#1CA7EC" data-old_color="#FFC144"/><ellipse cx="255.998" cy="200" rx="99.991" ry="100" data-original="#FFC144" class="" style="fill:#1CA7EC" data-old_color="#FFC144"/></g><ellipse cx="255.998" cy="200" fill="#beece1" rx="59.995" ry="60" data-original="#BEECE1" class="active-path" style="fill:#4ADEDE" data-old_color="#beece1"/><path d="m305.994 174.5h49.996v50h-49.996z" fill="#ffda8f" data-original="#FFDA8F" class="" style="fill:#797FF7" data-old_color="#ffda8f"/><path d="m207.983 434.29c-1.82-1.56-4.13-2.42-6.519-2.42-2.92 0-5.68 1.27-7.579 3.48-1.75 2.02-2.6 4.61-2.4 7.27s1.43 5.09 3.449 6.83c1.82 1.56 4.13 2.42 6.519 2.42 2.92 0 5.68-1.26 7.59-3.47 1.74-2.03 2.59-4.61 2.389-7.27-.2-2.67-1.429-5.09-3.449-6.84z" data-original="#000000" class="" style="fill:#000000"/><path d="m310.613 431.87c-2.389 0-4.699.86-6.509 2.42-2.03 1.75-3.25 4.17-3.45 6.84-.2 2.66.65 5.24 2.39 7.27 1.9 2.21 4.66 3.47 7.579 3.47 2.39 0 4.71-.85 6.519-2.42h.01c2.02-1.75 3.24-4.17 3.44-6.83s-.65-5.24-2.389-7.27c-1.9-2.21-4.67-3.48-7.59-3.48z" data-original="#000000" class="" style="fill:#000000"/><path d="m365.989 224.5v-50c0-3.908-2.246-7.283-5.513-8.928-.932-2.829-1.967-5.63-3.136-8.392-17.025-40.262-57.648-67.18-101.342-67.18-23.009 0-45.877 7.393-64.519 20.893-28.333 20.517-45.471 54.134-45.471 89.107 0 40.522 23.826 79.209 59.736 97.848 15.468 8.029 32.838 12.152 50.254 12.152 43.664 0 84.34-26.972 101.341-67.18 1.321-3.121 2.485-6.288 3.505-9.494-.036-.008-.073-.014-.11-.022 3.129-1.691 5.255-4.999 5.255-8.804zm-46.356 39.14c-17.009 16.99-39.607 26.36-63.635 26.36s-46.626-9.37-63.635-26.36c-16.989-17.01-26.348-39.61-26.358-63.64.01-24.03 9.369-46.63 26.358-63.64 17.009-16.99 39.607-26.36 63.635-26.36s46.626 9.37 63.634 26.36c8.218 8.228 14.645 17.767 19.099 28.14h-22.438c-12.19-20.629-34.649-34.5-60.294-34.5-38.595 0-69.994 31.402-69.994 70s31.399 70 69.994 70c26.055 0 48.812-14.323 60.86-35.5h22.282c-4.464 10.759-11.029 20.649-19.508 29.14zm-22.662-34.849-.347.298c-9.082 12.649-23.902 20.911-40.626 20.911-27.568 0-49.996-22.43-49.996-50s22.428-50 49.996-50c16.744 0 31.578 8.283 40.653 20.959-.418 1.102-.657 2.292-.657 3.541v50c.001 1.538.354 2.991.977 4.291zm49.02-14.291h-29.997v-30h29.997z" data-original="#000000" class="" style="fill:#000000"/><path d="m255.998 20c5.52 0 9.999-4.48 9.999-10s-4.48-10-9.999-10-9.999 4.48-9.999 10 4.48 10 9.999 10z" data-original="#000000" class="" style="fill:#000000"/><circle cx="95.013" cy="401" r="10" data-original="#000000" class="" style="fill:#000000"/><circle cx="416.984" cy="401" r="10" data-original="#000000" class="" style="fill:#000000"/><path d="m490.98 382.757-84.995-42.911v-29.846h9.999c8.009 0 15.548-3.12 21.208-8.79 5.669-5.66 8.789-13.19 8.789-21.21v-160c0-8.01-3.12-15.55-8.789-21.21-5.66-5.67-13.199-8.79-21.208-8.79h-10.709c-5.958-50.608-49.103-90-101.282-90h-7.48c-5.522 0-9.999 4.477-9.999 10s4.477 10 9.999 10h7.48c45.211 0 81.993 36.785 81.993 82v200.048c-8.403 1.899-22.481 5.049-37.089 8.174-5.4 1.155-8.841 6.47-7.686 11.871 1.004 4.696 5.152 7.91 9.768 7.91.693 0 1.396-.072 2.101-.223 12.373-2.647 24.371-5.312 32.905-7.23v20.45c-15.175 5.044-58.679 17-129.988 17-70.965 0-114.74-11.986-129.988-17.02v-20.459c8.542 1.92 20.597 4.598 33.033 7.258.705.151 1.409.223 2.101.223 4.615 0 8.764-3.215 9.768-7.91 1.155-5.401-2.286-10.715-7.686-11.871-14.683-3.141-28.829-6.306-37.216-8.202v-200.019c0-45.215 36.782-82 81.993-82h7.48c5.522 0 9.999-4.477 9.999-10s-4.477-10-9.999-10h-7.48c-52.179 0-95.324 39.392-101.282 90h-10.707c-8.019 0-15.549 3.12-21.208 8.79-5.67 5.66-8.789 13.19-8.789 21.21v160c0 8.02 3.119 15.55 8.789 21.21 5.659 5.67 13.189 8.79 21.208 8.79h9.999v29.842l-85.51 43.1c-15.482 7.386-23.342 23.624-19.564 40.449 3.769 16.789 17.805 28.069 34.926 28.069h82.616c14.7 0 28.828 6.215 38.709 16.997.017.019.066.073.083.091 25.303 27.606 61.292 43.444 98.739 43.453h.031c37.434 0 73.419-15.821 98.729-43.407 9.924-10.818 24.036-17.027 38.717-17.034l82.666-.041c17.285-.008 31.343-11.426 34.984-28.412 3.639-16.986-4.456-33.17-20.158-40.35zm-84.995-272.757h9.999c5.5.01 9.989 4.5 9.999 10v160c-.01 5.5-4.5 9.99-9.999 10h-9.999zm-309.972 180c-5.5-.01-9.989-4.5-9.999-10v-160c.01-5.5 4.5-9.99 9.999-10h9.999v180zm395.57 128.915c-1.305 6.09-6.046 12.599-15.44 12.603l-82.666.041c-20.264.01-39.744 8.581-53.444 23.513-21.532 23.47-52.143 36.928-83.992 36.928h-.026c-31.858-.007-62.475-13.481-83.951-36.911-.017-.019-.066-.073-.083-.091-13.711-14.959-33.212-23.538-53.503-23.538h-82.615c-9.303 0-14.062-6.431-15.413-12.45-1.366-6.084.208-14.02 8.722-18.046.076-.036.151-.072.226-.11l82.668-41.667c.01.004.019.011.03.015 1.995.849 49.952 20.798 143.902 20.798s141.907-19.949 143.903-20.798c.008-.003.015-.008.023-.012l82.229 41.515c.133.067.268.131.403.192 8.667 3.9 10.346 11.864 9.027 18.018z" data-original="#000000" class="" style="fill:#000000"/></g> </svg>
