<?xml version="1.0"?>
<svg xmlns="http://www.w3.org/2000/svg" viewBox="0 0 64 64" width="512px" height="512px" class=""><g><g id="Filled_outline" data-name="Filled outline"><rect x="3" y="41" width="58" height="20" style="fill:#66342E" data-original="#A04218" class="active-path" data-old_color="#A04218"/><rect x="7" y="45" width="50" height="6" style="fill:#f1c056" data-original="#F1C056" class=""/><rect x="7" y="51" width="50" height="6" style="fill:#d9833b" data-original="#D9833B"/><polygon points="32 41 10 41 14 29 28 29 32 41" style="fill:#f1c056" data-original="#F1C056" class=""/><polygon points="43 29 21 29 25 17 39 17 43 29" style="fill:#f9d07d" data-original="#F9D07D" class=""/><polygon points="54 41 32 41 36 29 50 29 54 41" style="fill:#f1c056" data-original="#F1C056" class=""/><polygon points="27.97 25.243 26.03 24.757 27.219 20 31 20 31 22 28.781 22 27.97 25.243" style="fill:#d9833b" data-original="#D9833B"/><rect x="33" y="20" width="2" height="2" style="fill:#d9833b" data-original="#D9833B"/><rect x="14" y="36" width="6" height="2" style="fill:#d9833b" data-original="#D9833B"/><rect x="22" y="36" width="2" height="2" style="fill:#d9833b" data-original="#D9833B"/><polygon points="49.281 38 44 38 44 36 46.719 36 46.03 33.243 47.97 32.757 49.281 38" style="fill:#d9833b" data-original="#D9833B"/><rect x="40" y="36" width="2" height="2" style="fill:#d9833b" data-original="#D9833B"/><rect x="11" y="45" width="2" height="3" style="fill:#d9833b" data-original="#D9833B"/><rect x="15" y="54" width="2" height="3" style="fill:#f1c056" data-original="#F1C056" class=""/><rect x="19" y="54" width="2" height="3" style="fill:#f1c056" data-original="#F1C056" class=""/><rect x="25" y="45" width="2" height="3" style="fill:#d9833b" data-original="#D9833B"/><rect x="31" y="51" width="2" height="3" style="fill:#f1c056" data-original="#F1C056" class=""/><rect x="39" y="45" width="2" height="6" style="fill:#d9833b" data-original="#D9833B"/><rect x="18" y="45" width="2" height="6" style="fill:#d9833b" data-original="#D9833B"/><rect x="49" y="51" width="2" height="6" style="fill:#f1c056" data-original="#F1C056" class=""/><rect x="42" y="54" width="2" height="3" style="fill:#f1c056" data-original="#F1C056" class=""/><rect x="46" y="45" width="2" height="3" style="fill:#d9833b" data-original="#D9833B"/><path d="M48,7a4,4,0,0,1-4-4,1,1,0,0,0-2,0,4,4,0,0,1-4,4,1,1,0,0,0,0,2,4,4,0,0,1,4,4,1,1,0,0,0,2,0,4,4,0,0,1,4-4,1,1,0,0,0,0-2ZM43,9.69A6.044,6.044,0,0,0,41.31,8,6.044,6.044,0,0,0,43,6.31,6.044,6.044,0,0,0,44.69,8,6.044,6.044,0,0,0,43,9.69Z" style="fill:#f3bb59" data-original="#F3BB59" class=""/><path d="M61,22a4,4,0,0,1-4-4,1,1,0,0,0-2,0,4,4,0,0,1-4,4,1,1,0,0,0,0,2,4,4,0,0,1,4,4,1,1,0,0,0,2,0,4,4,0,0,1,4-4,1,1,0,0,0,0-2Zm-5,2.69A6.044,6.044,0,0,0,54.31,23,6.044,6.044,0,0,0,56,21.31,6.044,6.044,0,0,0,57.69,23,6.044,6.044,0,0,0,56,24.69Z" style="fill:#f3bb59" data-original="#F3BB59" class=""/><path d="M16,17a4,4,0,0,1-4-4,1,1,0,0,0-2,0,4,4,0,0,1-4,4,1,1,0,0,0,0,2,4,4,0,0,1,4,4,1,1,0,0,0,2,0,4,4,0,0,1,4-4,1,1,0,0,0,0-2Zm-5,2.69A6.044,6.044,0,0,0,9.31,18,6.044,6.044,0,0,0,11,16.31,6.044,6.044,0,0,0,12.69,18,6.044,6.044,0,0,0,11,19.69Z" style="fill:#f3bb59" data-original="#F3BB59" class=""/><path d="M50.721,28h-7l-4-12H24.279l-4,12h-7l-4,12H2V62H62V40H54.721Zm-1.442,2,3.333,10H33.388l3.333-10ZM32,37.837,29.387,30h5.226ZM25.721,18H38.279l3.333,10H22.388Zm-11,12H27.279l3.333,10H11.388ZM60,42V60H4V42Z" data-original="#000000" class=""/><polygon points="31 22 31 20 27.219 20 26.03 24.757 27.97 25.243 28.781 22 31 22" data-original="#000000" class=""/><rect x="33" y="20" width="2" height="2" data-original="#000000" class=""/><rect x="14" y="36" width="6" height="2" data-original="#000000" class=""/><rect x="22" y="36" width="2" height="2" data-original="#000000" class=""/><polygon points="47.97 32.757 46.03 33.243 46.719 36 44 36 44 38 49.281 38 47.97 32.757" data-original="#000000" class=""/><rect x="40" y="36" width="2" height="2" data-original="#000000" class=""/><path d="M6,58H58V44H6Zm2-6H31v2h2V52H49v4H44V54H42v2H21V54H19v2H17V54H15v2H8Zm19-4V46H39v4H20V46h5v2Zm29,8H51V52h5Zm0-6H41V46h5v2h2V46h8ZM8,46h3v2h2V46h5v4H8Z" data-original="#000000" class=""/><path d="M38,9a4,4,0,0,1,4,4,1,1,0,0,0,2,0,4,4,0,0,1,4-4,1,1,0,0,0,0-2,4,4,0,0,1-4-4,1,1,0,0,0-2,0,4,4,0,0,1-4,4,1,1,0,0,0,0,2Zm5-2.69A6.044,6.044,0,0,0,44.69,8,6.044,6.044,0,0,0,43,9.69,6.044,6.044,0,0,0,41.31,8,6.044,6.044,0,0,0,43,6.31Z" data-original="#000000" class=""/><path d="M61,22a4,4,0,0,1-4-4,1,1,0,0,0-2,0,4,4,0,0,1-4,4,1,1,0,0,0,0,2,4,4,0,0,1,4,4,1,1,0,0,0,2,0,4,4,0,0,1,4-4,1,1,0,0,0,0-2Zm-5,2.69A6.044,6.044,0,0,0,54.31,23,6.044,6.044,0,0,0,56,21.31,6.044,6.044,0,0,0,57.69,23,6.044,6.044,0,0,0,56,24.69Z" data-original="#000000" class=""/><path d="M6,19a4,4,0,0,1,4,4,1,1,0,0,0,2,0,4,4,0,0,1,4-4,1,1,0,0,0,0-2,4,4,0,0,1-4-4,1,1,0,0,0-2,0,4,4,0,0,1-4,4,1,1,0,0,0,0,2Zm5-2.69A6.044,6.044,0,0,0,12.69,18,6.044,6.044,0,0,0,11,19.69,6.044,6.044,0,0,0,9.31,18,6.044,6.044,0,0,0,11,16.31Z" data-original="#000000" class=""/></g></g> </svg>
