<?xml version="1.0"?>
<svg xmlns="http://www.w3.org/2000/svg" xmlns:xlink="http://www.w3.org/1999/xlink" xmlns:svgjs="http://svgjs.com/svgjs" version="1.1" width="512" height="512" x="0" y="0" viewBox="0 0 512 512" style="enable-background:new 0 0 512 512" xml:space="preserve" class=""><g>
<g xmlns="http://www.w3.org/2000/svg">
	<path style="" d="M245.757,460.275C164.5,455.154,99.46,390.113,94.338,308.856l91.927,16.217l-31.752,63.589   c-1.707,3.329-1.024,7.255,1.536,9.901c1.707,1.622,3.841,2.475,6.06,2.475c1.28,0,2.561-0.256,3.841-0.939l63.589-31.752   L245.757,460.275z" fill="#ffffff" data-original="#ffffff" class=""/>
	<path style="" d="M417.662,308.856c-5.121,81.258-70.162,146.298-151.419,151.419l16.217-91.927l63.589,31.752   c1.28,0.683,2.561,0.939,3.841,0.939c2.219,0,4.353-0.854,6.06-2.475c2.561-2.646,3.243-6.572,1.536-9.901l-31.752-63.589   L417.662,308.856z" fill="#ffffff" data-original="#ffffff" class=""/>
</g>
<path xmlns="http://www.w3.org/2000/svg" d="M264.535,85.483V31.965l27.57,33.118c1.707,2.049,4.097,3.073,6.572,3.073c1.963,0,3.841-0.683,5.463-1.963  c3.585-3.073,4.097-8.45,1.11-12.035L262.572,2.945c-3.243-3.926-9.901-3.926-13.145,0L206.75,54.158  c-2.987,3.585-2.475,8.962,1.11,12.035c3.67,2.987,9.048,2.475,12.035-1.11l27.57-33.118v53.517  C133.772,89.921,42.613,183.811,42.613,298.613C42.613,416.317,138.296,512,256,512s213.387-95.683,213.387-213.387  C469.387,183.811,378.228,89.921,264.535,85.483z M452.06,290.078h-16.815c-0.171,0-0.256,0.085-0.427,0.085  c-2.049-43.019-19.205-82.026-46.348-111.9l12.206-12.206C430.892,199.004,450.011,242.365,452.06,290.078z M346.049,400.1  c1.28,0.683,2.561,0.939,3.841,0.939c2.219,0,4.353-0.854,6.06-2.475c2.561-2.646,3.243-6.572,1.536-9.901l-31.752-63.589  l91.927-16.217c-5.121,81.258-70.162,146.298-151.419,151.419l16.217-91.927L346.049,400.1z M285.618,350.765l3.329-19.205  l19.205-3.329l22.619,45.153L285.618,350.765z M357.487,208.564c1.707-3.329,1.024-7.255-1.536-9.901  c-2.646-2.561-6.572-3.158-9.901-1.536l-63.589,31.752l-16.217-91.927c81.258,5.121,146.298,70.162,151.419,151.419l-91.927-16.217  L357.487,208.564z M308.152,268.995l-19.205-3.329l-3.329-19.205l45.153-22.619L308.152,268.995z M264.535,119.368v-16.815  c47.713,2.049,91.073,21.168,124.02,51.384l-12.206,12.206c-29.874-27.143-68.881-44.299-111.9-46.348  C264.45,119.625,264.535,119.539,264.535,119.368z M247.465,102.554v16.815c0,0.171,0.085,0.256,0.085,0.427  c-43.019,2.049-82.026,19.205-111.9,46.348l-12.206-12.206C156.391,123.722,199.751,104.602,247.465,102.554z M165.951,197.127  c-3.329-1.707-7.255-1.024-9.901,1.536c-2.561,2.646-3.243,6.572-1.536,9.901l31.752,63.589l-91.927,16.217  c5.121-81.258,70.162-146.298,151.419-151.419l-16.217,91.927L165.951,197.127z M226.382,246.462l-3.329,19.205l-19.205,3.329  l-22.619-45.153L226.382,246.462z M154.513,388.662c-1.707,3.329-1.024,7.255,1.536,9.901c1.707,1.622,3.841,2.475,6.06,2.475  c1.28,0,2.561-0.256,3.841-0.939l63.589-31.752l16.217,91.927C164.5,455.154,99.46,390.113,94.338,308.856l91.927,16.217  L154.513,388.662z M203.848,328.231l19.205,3.329l3.329,19.205l-45.153,22.619L203.848,328.231z M111.324,166.058l12.206,12.206  c-27.143,29.874-44.299,68.881-46.348,111.9c-0.171,0-0.256-0.085-0.427-0.085H59.94C61.989,242.365,81.108,199.004,111.324,166.058  z M59.94,307.149h16.815c0.171,0,0.256-0.085,0.427-0.085c2.049,43.019,19.205,82.026,46.348,111.9l-12.206,12.206  C81.108,398.222,61.989,354.862,59.94,307.149z M247.465,494.502c-47.713-2.049-91.073-20.997-124.02-51.213l12.206-12.206  c29.874,27.143,68.881,44.299,111.815,46.348V494.502z M238.758,322.769c-0.597-3.585-3.329-6.316-6.914-6.914l-97.475-17.242  l97.475-17.242c3.585-0.597,6.316-3.329,6.914-6.914L256,176.983l17.242,97.475c0.597,3.585,3.329,6.316,6.914,6.914l97.475,17.242  l-97.475,17.242c-3.585,0.598-6.316,3.329-6.914,6.914L256,420.244L238.758,322.769z M264.535,494.502v-17.071  c42.933-2.049,81.94-19.205,111.815-46.348l12.206,12.206C355.609,473.505,312.249,492.454,264.535,494.502z M400.676,431.169  l-12.206-12.206c27.143-29.874,44.299-68.881,46.348-111.9c0.171,0,0.256,0.085,0.427,0.085h16.815  C450.011,354.862,430.892,398.222,400.676,431.169z" fill="#000000" data-original="#000000" style="" class=""/>
<g xmlns="http://www.w3.org/2000/svg">
	<polygon style="" points="330.771,373.384 285.618,350.765 288.947,331.56 308.152,328.231  " fill="#7ad6f4" data-original="#f9a825" class=""/>
	<polygon style="" points="330.771,223.843 308.152,268.995 288.947,265.666 285.618,246.462  " fill="#7ad6f4" data-original="#f9a825" class=""/>
	<polygon style="" points="226.382,246.462 223.053,265.666 203.848,268.995 181.229,223.843  " fill="#7ad6f4" data-original="#f9a825" class=""/>
</g>
<path xmlns="http://www.w3.org/2000/svg" style="" d="M377.63,298.613l-97.475,17.242c-3.585,0.598-6.316,3.329-6.914,6.914L256,420.244l-17.242-97.475  c-0.597-3.585-3.329-6.316-6.914-6.914l-97.475-17.242l97.475-17.242c3.585-0.597,6.316-3.329,6.914-6.914L256,176.983  l17.242,97.475c0.597,3.585,3.329,6.316,6.914,6.914L377.63,298.613z" fill="#1ca7ec" data-original="#ffc107" class=""/>
<polygon xmlns="http://www.w3.org/2000/svg" style="" points="226.382,350.765 181.229,373.384 203.848,328.231 223.053,331.56 " fill="#7ad6f4" data-original="#f9a825" class=""/>
<g xmlns="http://www.w3.org/2000/svg">
	<path style="" d="M156.05,198.663c-2.561,2.646-3.243,6.572-1.536,9.901l31.752,63.589l-91.927,16.217   c5.121-81.258,70.162-146.298,151.419-151.419l-16.217,91.927l-63.589-31.752C162.622,195.42,158.696,196.102,156.05,198.663z" fill="#ffffff" data-original="#ffffff" class=""/>
	<path style="" d="M357.487,208.564c1.707-3.329,1.024-7.255-1.536-9.901c-2.646-2.561-6.572-3.158-9.901-1.536   l-63.589,31.752l-16.217-91.927c81.258,5.121,146.298,70.162,151.419,151.419l-91.927-16.217L357.487,208.564z" fill="#ffffff" data-original="#ffffff" class=""/>
</g>
<path xmlns="http://www.w3.org/2000/svg" style="" d="M388.556,443.289c-32.947,30.216-76.307,49.164-124.02,51.213v-17.071  c42.933-2.049,81.94-19.205,111.815-46.348L388.556,443.289z" fill="#4adede" data-original="#8d6e63" class=""/>
<g xmlns="http://www.w3.org/2000/svg">
	<path style="" d="M452.06,307.149c-2.049,47.713-21.168,91.073-51.384,124.02l-12.206-12.206   c27.143-29.874,44.299-68.881,46.348-111.9c0.171,0,0.256,0.085,0.427,0.085L452.06,307.149L452.06,307.149z" fill="#797ff7" data-original="#6d4c41" class=""/>
	<path style="" d="M247.465,477.431v17.071c-47.713-2.049-91.073-20.997-124.02-51.213l12.206-12.206   C165.524,458.227,204.531,475.383,247.465,477.431z" fill="#797ff7" data-original="#6d4c41" class=""/>
</g>
<path xmlns="http://www.w3.org/2000/svg" style="" d="M123.53,418.963l-12.206,12.206c-30.216-32.947-49.335-76.307-51.384-124.02h16.815  c0.171,0,0.256-0.085,0.427-0.085C79.23,350.082,96.387,389.089,123.53,418.963z" fill="#4adede" data-original="#8d6e63" class=""/>
<path xmlns="http://www.w3.org/2000/svg" style="" d="M123.53,178.263c-27.143,29.874-44.299,68.881-46.348,111.9c-0.171,0-0.256-0.085-0.427-0.085H59.94  c2.049-47.713,21.168-91.073,51.384-124.02L123.53,178.263z" fill="#797ff7" data-original="#6d4c41" class=""/>
<path xmlns="http://www.w3.org/2000/svg" style="" d="M247.55,119.795c-43.019,2.049-82.026,19.205-111.9,46.348l-12.206-12.206  c32.947-30.216,76.307-49.335,124.02-51.384v16.815C247.465,119.539,247.55,119.625,247.55,119.795z" fill="#4adede" data-original="#8d6e63" class=""/>
<path xmlns="http://www.w3.org/2000/svg" style="" d="M388.556,153.937l-12.206,12.206c-29.874-27.143-68.881-44.299-111.9-46.348  c0-0.171,0.085-0.256,0.085-0.427v-16.815C312.249,104.602,355.609,123.722,388.556,153.937z" fill="#797ff7" data-original="#6d4c41" class=""/>
<path xmlns="http://www.w3.org/2000/svg" style="" d="M452.06,290.078h-16.815c-0.171,0-0.256,0.085-0.427,0.085c-2.049-43.019-19.205-82.026-46.348-111.9  l12.206-12.206C430.892,199.004,450.011,242.365,452.06,290.078z" fill="#4adede" data-original="#8d6e63" class=""/>
<g xmlns="http://www.w3.org/2000/svg">
	<path style="" d="M162.11,401.039c-2.219,0-4.353-0.854-6.06-2.475c-0.469-0.487-0.811-1.058-1.152-1.622   l-0.384,0.768c-1.707,3.329-1.024,7.255,1.536,9.901c1.707,1.622,3.841,2.475,6.06,2.475c1.28,0,2.561-0.256,3.841-0.939   l65.45-30.241l-1.861-10.558L165.951,400.1C164.671,400.783,163.39,401.039,162.11,401.039z" fill="#ffffff" data-original="#f4f4f4" class=""/>
	<path style="" d="M182.117,333.387l4.148-8.314l-91.927-16.217c0.196,3.115,0.64,6.163,1.016,9.227L182.117,333.387z" fill="#ffffff" data-original="#f4f4f4" class=""/>
	<path style="" d="M346.049,409.148c1.28,0.683,2.561,0.939,3.841,0.939c2.219,0,4.353-0.854,6.06-2.475   c2.561-2.646,3.243-6.572,1.536-9.901l-0.384-0.768c-0.341,0.563-0.683,1.135-1.152,1.622c-1.707,1.622-3.841,2.475-6.06,2.475   c-1.28,0-2.561-0.256-3.841-0.939l-63.589-31.752l-1.861,10.558L346.049,409.148z" fill="#ffffff" data-original="#f4f4f4" class=""/>
	<path style="" d="M416.646,318.083c0.367-3.064,0.819-6.111,1.016-9.227l-91.927,16.217l4.148,8.314L416.646,318.083z   " fill="#ffffff" data-original="#f4f4f4" class=""/>
</g>
<g xmlns="http://www.w3.org/2000/svg">
</g>
<g xmlns="http://www.w3.org/2000/svg">
</g>
<g xmlns="http://www.w3.org/2000/svg">
</g>
<g xmlns="http://www.w3.org/2000/svg">
</g>
<g xmlns="http://www.w3.org/2000/svg">
</g>
<g xmlns="http://www.w3.org/2000/svg">
</g>
<g xmlns="http://www.w3.org/2000/svg">
</g>
<g xmlns="http://www.w3.org/2000/svg">
</g>
<g xmlns="http://www.w3.org/2000/svg">
</g>
<g xmlns="http://www.w3.org/2000/svg">
</g>
<g xmlns="http://www.w3.org/2000/svg">
</g>
<g xmlns="http://www.w3.org/2000/svg">
</g>
<g xmlns="http://www.w3.org/2000/svg">
</g>
<g xmlns="http://www.w3.org/2000/svg">
</g>
<g xmlns="http://www.w3.org/2000/svg">
</g>
</g></svg>
