<?xml version="1.0"?>
<svg xmlns="http://www.w3.org/2000/svg" id="Layer_1" enable-background="new 0 0 512 512" height="512px" viewBox="0 0 512 512" width="512px" class=""><g><path d="m10 61h492v390h-492z" fill="#faf7f5" data-original="#FAF7F5" class=""/><path d="m462 391v-270c-11.046 0-20-8.954-20-20h-372c0 11.046-8.954 20-20 20v270c11.046 0 20 8.954 20 20h372c0-11.046 8.954-20 20-20z" fill="#a0c8ff" data-original="#A0C8FF" class="active-path" style="fill:#1CA7EC" data-old_color="#a0c8ff"/><g fill="#ffda8f"><path d="m253.773 212.027c-8.88-.373-16.936 3.181-22.576 9.069-6.493 6.778-16.431 8.716-25.349 5.789-3.728-1.223-7.711-1.885-11.848-1.885-.533 0-1.064.012-1.592.034-2.815.12-5.469-1.18-7.063-3.504-7.131-10.395-19.291-17.069-32.978-16.496-19.749.827-35.762 17.048-36.351 36.805-.64 21.517 16.612 39.161 37.984 39.161h.131c3.767-.003 7.25 1.844 9.517 4.852 6.934 9.198 17.945 15.148 30.352 15.148 44 0 50.529-30 58.5-30 16.918 0 30.51-14.242 29.441-31.391-.93-14.917-13.235-26.954-28.168-27.582z" data-original="#FFDA8F" class=""/><path d="m86 337c0-13.807-11.193-25-25-25-3.948 0-7.68.918-11 2.548v76.452c11.046 0 20 8.954 20 20h48.232c4.882-6.748 7.768-15.035 7.768-24 0-44-40-38-40-50z" data-original="#FFDA8F" class=""/><path d="m462 391v-90.662c-4.9-2.142-10.308-3.338-15.998-3.338-13.918-.001-26.249 7.265-33.423 18.157-1.182-.095-2.373-.157-3.579-.157-24.301 0-44 19.699-44 44 0 .671.021 1.336.051 2h-52.26c-22.429 0-41.211 18.355-40.783 40.78.061 3.179.502 6.264 1.264 9.22h168.728c0-11.046 8.954-20 20-20z" data-original="#FFDA8F" class=""/></g><path d="m10 184c5.51 0 10-4.49 10-10s-4.49-10-10-10-10 4.49-10 10 4.49 10 10 10z" data-original="#000000" class=""/><path d="m509.07 53.93c-1.86-1.86-4.44-2.93-7.07-2.93h-492c-2.63 0-5.21 1.07-7.07 2.93s-2.93 4.44-2.93 7.07v68c0 5.51 4.49 10 10 10s10-4.49 10-10v-58h472v370h-472v-222c0-5.51-4.49-10-10-10s-10 4.49-10 10v232c0 2.63 1.07 5.21 2.93 7.07s4.44 2.93 7.07 2.93h492c2.63 0 5.21-1.07 7.07-2.93s2.93-4.44 2.93-7.07v-390c0-2.63-1.07-5.21-2.93-7.07z" data-original="#000000" class=""/><path d="m154 291h.141.001c.55 0 1.104.317 1.521.871 9.163 12.157 23.136 19.129 38.337 19.129 35.517 0 50.377-17.651 58.36-27.134.796-.946 1.794-2.13 2.543-2.94 9.991-.617 19.5-5.052 26.387-12.382 7.543-8.028 11.319-18.525 10.631-29.557-1.24-19.882-17.812-36.113-37.728-36.951-11.347-.472-22.369 3.949-30.218 12.143-3.6 3.758-9.492 5.016-15.01 3.205-5.139-1.686-10.552-2.488-15.979-2.372-9.479-13.204-24.746-20.649-41.037-19.968-25.008 1.047-45.182 21.472-45.928 46.5-.39 13.104 4.416 25.494 13.534 34.887 9.12 9.395 21.353 14.569 34.445 14.569zm-27.987-48.862c.435-14.593 12.195-26.501 26.774-27.112 9.716-.407 18.81 4.139 24.313 12.162 3.552 5.179 9.428 8.109 15.734 7.838 3.345-.144 6.727.321 9.897 1.361 12.788 4.196 26.796.91 35.688-8.374 3.876-4.046 9.327-6.236 14.934-5.995 9.823.413 17.996 8.413 18.607 18.213.34 5.463-1.522 10.655-5.246 14.617-3.727 3.967-8.775 6.151-14.215 6.151-7.033 0-11.307 5.076-15.439 9.985-7.111 8.448-16.85 20.016-43.06 20.016-8.864 0-17.016-4.07-22.366-11.167-4.169-5.532-10.708-8.833-17.484-8.833-.006 0-.013 0-.019 0h-.131c-7.637 0-14.773-3.019-20.094-8.5-5.318-5.479-8.121-12.71-7.893-20.362z" data-original="#000000" class=""/><path d="m179.02 175.5c1.852 3.208 5.213 5.001 8.669 5.001 1.696 0 3.416-.432 4.991-1.341l2.32-1.34v2.679c0 5.523 4.477 10 10 10s10-4.477 10-10v-2.679l2.32 1.34c1.575.909 3.294 1.341 4.991 1.341 3.456 0 6.817-1.793 8.669-5.001 2.762-4.783 1.123-10.899-3.66-13.66l-2.32-1.34 2.321-1.34c4.783-2.761 6.422-8.877 3.66-13.66-2.761-4.784-8.878-6.423-13.66-3.66l-2.32 1.34v-2.68c0-5.523-4.477-10-10-10s-10 4.477-10 10v2.679l-2.32-1.34c-4.782-2.762-10.899-1.123-13.66 3.66-2.762 4.783-1.123 10.899 3.66 13.66l2.319 1.341-2.321 1.34c-4.782 2.761-6.421 8.877-3.659 13.66z" data-original="#000000" class=""/><path d="m60 411c0 5.523 4.477 10 10 10h372c5.523 0 10-4.477 10-10 0-5.514 4.486-10 10-10 5.523 0 10-4.477 10-10v-270c0-5.523-4.477-10-10-10-5.514 0-10-4.486-10-10 0-5.523-4.477-10-10-10h-372c-5.523 0-10 4.477-10 10 0 5.514-4.486 10-10 10-5.523 0-10 4.477-10 10v270c0 5.523 4.477 10 10 10 5.514 0 10 4.486 10 10zm18.287-10c-3.018-8.512-9.775-15.269-18.287-18.287v-60.681c.331-.021.665-.032 1-.032 8.271 0 15 6.729 15 15 0 10.736 9.818 14.903 16.986 17.946 11.314 4.802 23.014 9.768 23.014 32.054 0 4.924-1.144 9.686-3.339 14zm373.713-18.287c-8.512 3.018-15.269 9.775-18.287 18.287h-151.713c.008-7.678 3.042-14.983 8.582-20.631 5.842-5.954 13.936-9.369 22.208-9.369h52.261c2.73 0 5.341-1.116 7.228-3.089 1.886-1.973 2.884-4.632 2.762-7.359-.023-.515-.041-1.031-.041-1.552 0-18.748 15.252-34 34-34 .825 0 1.733.041 2.776.125 3.638.294 7.146-1.419 9.155-4.467 5.632-8.553 15.004-13.658 25.069-13.658h.002c2.034 0 4.038.201 5.998.601zm-373.713-271.713h355.427c3.018 8.512 9.775 15.269 18.287 18.287v158.084c-1.98-.237-3.979-.371-5.998-.371-.002 0-.001 0-.003 0-14.888 0-28.839 6.643-38.325 18.016-26.464.641-48.27 20.413-52.083 45.984h-42.802c-13.608 0-26.906 5.6-36.484 15.363-9.242 9.421-14.285 21.688-14.291 34.637h-127.963c1.286-4.51 1.948-9.208 1.948-14 0-2.715-.148-5.261-.401-7.685.646-.105 1.321-.217 2.036-.336 5.448-.909 9.127-6.061 8.219-11.509-.909-5.448-6.062-9.128-11.509-8.219-1.657.276-3.119.513-4.381.714-7.647-14.282-20.831-19.894-29.163-23.43-1.582-.671-3.573-1.517-4.901-2.198-1.364-18.06-16.496-32.337-34.9-32.337-.335 0-.667.019-1 .028v-172.741c8.512-3.018 15.269-9.775 18.287-18.287z" data-original="#000000" class=""/><path d="m280.059 161.128c3.094.146 6.265.388 9.425.72.355.037.708.056 1.058.056 5.053 0 9.393-3.818 9.933-8.956.577-5.493-3.407-10.413-8.9-10.991-3.542-.372-7.1-.644-10.576-.807-5.537-.275-10.199 4.002-10.458 9.519-.261 5.517 4.001 10.2 9.518 10.459z" data-original="#000000" class=""/><path d="m290.524 314.803c-2.88 1.313-5.883 2.632-8.925 3.921-5.084 2.156-7.459 8.025-5.304 13.11 1.616 3.811 5.317 6.099 9.211 6.099 1.302 0 2.625-.256 3.899-.795 3.205-1.359 6.372-2.75 9.413-4.137 5.025-2.291 7.243-8.221 4.952-13.247-2.29-5.025-8.219-7.242-13.246-4.951z" data-original="#000000" class=""/><path d="m366.542 211.801c1.181 4.489 5.231 7.458 9.664 7.458.842 0 1.698-.107 2.551-.332 5.341-1.405 8.532-6.874 7.127-12.215-.981-3.73-2.233-7.375-3.723-10.833-2.184-5.072-8.066-7.415-13.14-5.229-5.072 2.184-7.414 8.067-5.229 13.14 1.096 2.546 2.021 5.241 2.75 8.011z" data-original="#000000" class=""/><path d="m240.146 333.963c-3.089.989-6.257 1.975-9.414 2.931-5.286 1.6-8.274 7.182-6.675 12.468 1.308 4.321 5.275 7.106 9.567 7.106.959 0 1.935-.139 2.9-.431 3.259-.986 6.528-2.004 9.719-3.025 5.26-1.684 8.159-7.313 6.475-12.573-1.683-5.261-7.31-8.158-12.572-6.476z" data-original="#000000" class=""/><path d="m187.764 348.422c-3.299.782-6.521 1.525-9.653 2.229-5.389 1.21-8.776 6.56-7.565 11.948 1.044 4.651 5.172 7.811 9.748 7.811.726 0 1.463-.079 2.201-.245 3.208-.72 6.507-1.48 9.885-2.281 5.374-1.274 8.697-6.664 7.423-12.038-1.276-5.373-6.665-8.694-12.039-7.424z" data-original="#000000" class=""/><path d="m367.095 271.71c1.451.736 2.995 1.084 4.518 1.084 3.646 0 7.162-2.002 8.925-5.477 1.757-3.462 3.238-7.021 4.404-10.58 1.719-5.249-1.143-10.896-6.391-12.616-5.246-1.716-10.896 1.142-12.616 6.391-.849 2.591-1.936 5.2-3.232 7.754-2.499 4.926-.533 10.945 4.392 13.444z" data-original="#000000" class=""/><path d="m329.966 172.059c2.809 1.254 5.506 2.622 8.015 4.063 1.571.902 3.283 1.331 4.973 1.331 3.463 0 6.831-1.801 8.68-5.02 2.751-4.789 1.1-10.901-3.689-13.653-3.094-1.777-6.399-3.454-9.824-4.983-5.045-2.254-10.957.011-13.208 5.053-2.252 5.044.01 10.957 5.053 13.209z" data-original="#000000" class=""/><path d="m336.042 288.335c-2.402 1.856-4.969 3.722-7.629 5.544-4.556 3.122-5.719 9.345-2.598 13.902 1.938 2.828 5.071 4.349 8.259 4.349 1.947 0 3.915-.567 5.643-1.751 2.975-2.038 5.854-4.131 8.557-6.221 4.37-3.377 5.174-9.658 1.796-14.027-3.377-4.369-9.657-5.173-14.028-1.796z" data-original="#000000" class=""/></g> </svg>
