<?xml version="1.0"?>
<svg xmlns="http://www.w3.org/2000/svg" id="Layer_1" enable-background="new 0 0 512 512" height="512px" viewBox="0 0 512 512" width="512px" class=""><g><path d="m10 176.093h492v40.029h-492z" fill="#ffc144" data-original="#FFC144" class="" style="fill:#7AD6F4" data-old_color="#ffc144"/><path d="m393 86.028h60v40.029h-60z" fill="#ffda8f" data-original="#FFDA8F" class="active-path" style="fill:#4ADEDE" data-old_color="#ffda8f"/><path d="m185 176.093h143v40.029h-143z" fill="#a0c8ff" data-original="#A0C8FF" class="" style="fill:#797FF7" data-old_color="#a0c8ff"/><path d="m309 106.043v-40.029h-125v110.079h144v-70.05z" fill="#faf7f5" data-original="#FAF7F5" class="" style="fill:#1CA7EC" data-old_color="#faf7f5"/><path d="m104 106.043 40 10.007v-60.043l-40 10.007z" fill="#c5d3de" data-original="#C5D3DE" class="" style="fill:#C5D3DE" data-old_color="#c5d3de"/><path d="m502 216.122h-492v4.003c0 135.96 110.138 216.155 246 216.155 135.862 0 246-80.195 246-216.155z" fill="#c68a86" data-original="#C68A86" class="" style="fill:#66342E" data-old_color="#c68a86"/><g fill="#8aa8bd"><path d="m236.5 216.622h40v143.103h-40z" data-original="#8AA8BD" class=""/><path d="m278.098 389.962s46.303-105.434 61.667-121.319 40.687-16.3 56.561-.925 16.288 40.716.924 56.602-119.152 65.642-119.152 65.642z" data-original="#8AA8BD" class=""/><path d="m233.902 322.483s-46.303 105.434-61.667 121.319c-15.364 15.886-40.687 16.3-56.561.925s-16.288-40.716-.924-56.602c15.364-15.885 119.152-65.642 119.152-65.642z" data-original="#8AA8BD" class=""/></g><ellipse cx="256" cy="356.223" fill="#c5d3de" rx="40" ry="40.029" data-original="#C5D3DE" class="" style="fill:#C5D3DE" data-old_color="#c5d3de"/><path d="m502 166.086h-164v-50.036h45v10.007c0 5.527 4.478 10.007 10 10.007h60c5.522 0 10-4.48 10-10.007v-40.029c0-5.527-4.478-10.007-10-10.007h-60c-5.522 0-10 4.48-10 10.007v10.007h-64v-30.021c0-5.527-4.478-10.007-10-10.007h-125c-5.522 0-10 4.48-10 10.007v10.007h-20v-20.014c0-3.082-1.419-5.991-3.846-7.888-2.428-1.897-5.592-2.567-8.58-1.821l-40 10.007c-4.451 1.114-7.574 5.117-7.574 9.709v40.029c0 4.592 3.123 8.595 7.574 9.709l40 10.007c.802.2 1.616.299 2.426.299 2.207 0 4.378-.732 6.154-2.12 2.427-1.896 3.846-4.806 3.846-7.888v-20.014h20v70.05h-164c-5.522 0-10 4.48-10 10.007v44.03c-.01 19.334 2.17 38.137 6.47 55.88 4.18 17.242 10.41 33.724 18.54 48.975 1.74 3.272 5.12 5.304 8.83 5.304 1.63 0 3.25-.41 4.7-1.181 2.35-1.261 4.08-3.353 4.859-5.914.78-2.552.511-5.264-.739-7.626-14.16-26.599-21.75-56.69-22.58-89.433h205.92v89.181c-21.396 10.368-104.363 51.306-118.436 65.856-.866.895-1.682 1.825-2.472 2.772-2.236-1.503-4.445-3.032-6.602-4.61-1.73-1.261-3.761-1.921-5.891-1.921-3.189 0-6.21 1.531-8.08 4.103-1.58 2.151-2.22 4.793-1.81 7.436.41 2.642 1.82 4.964 3.979 6.545 2.897 2.118 5.871 4.152 8.883 6.144-1.442 4.85-2.159 9.943-2.074 15.148.219 13.364 5.624 25.842 15.221 35.137 9.396 9.1 21.707 14.082 34.751 14.082.279 0 .56-.002.839-.007 13.354-.218 25.823-5.628 35.111-15.231 2.289-2.367 5.111-6.34 8.283-11.447 21.83 4.625 44.706 6.971 68.296 6.971 30.374 0 59.49-3.864 86.735-11.477-2.011 2.216-4.112 4.367-6.306 6.446-4.01 3.8-4.183 10.134-.385 14.147 1.966 2.079 4.611 3.127 7.263 3.127 2.468 0 4.94-.909 6.874-2.741 10.111-9.581 18.574-20.466 25.254-32.324 9.852-4.13 19.294-8.776 28.28-13.944-4.352 12.081-10.181 23.648-17.461 34.448-3.089 4.582-1.881 10.802 2.697 13.892 1.716 1.158 3.66 1.712 5.584 1.712 3.212 0 6.367-1.546 8.299-4.412 12.893-19.125 21.812-40.359 26.448-62.667 2.39-1.831 4.751-3.692 7.057-5.61 11.729-9.737 22.34-20.655 31.54-32.463 9.36-12.019 17.38-25.118 23.84-38.928 13.5-28.901 20.32-60.984 20.28-95.368v-44.03c.003-5.529-4.475-10.009-9.997-10.009zm-99-70.05h40v20.014h-40zm-269 7.197-20-5.004v-24.402l20-5.004zm358 102.88h-154v-20.013h154zm-297-20.013h123v20.013h-123zm-1-110.079h105v20.013h-30c-5.51 0-10 4.493-10 10.007 0 5.524 4.49 10.007 10 10.007l49 .001v50.036h-124zm-19 110.079v20.013h-155v-20.013zm91 40.029v81.083c-3.234-.66-6.574-1.026-10-1.026-3.425 0-6.769.349-10 1.01v-81.068h20zm-10 100.072c16.542 0 30 13.468 30 30.022s-13.458 30.022-30 30.022-30-13.468-30-30.022 13.458-30.022 30-30.022zm-90.95 110.642c-5.573 5.762-13.055 9.008-21.066 9.139-8.018.106-15.596-2.868-21.354-8.446-5.758-5.577-9.001-13.064-9.132-21.082s2.866-15.607 8.438-21.369c7.858-8.125 48.559-29.906 84.947-48.178-.571 3.02-.882 6.131-.882 9.315 0 1.106.049 2.199.12 3.287-16.066 34.38-33.858 69.876-41.071 77.334zm267.813-73.653c.09-2.316.137-4.639.137-6.967 0-5.527-4.478-10.007-10-10.007s-10 4.48-10 10.007c0 8.399-.681 16.715-1.981 24.893-7.516 5.325-15.476 10.2-23.816 14.627 1.3-4.346 2.413-8.765 3.286-13.265 1.052-5.426-2.491-10.678-7.912-11.73s-10.67 2.493-11.722 7.918c-1.963 10.125-5.229 19.82-9.672 28.925-31.631 12.217-67.373 18.68-105.154 18.68h-.061c-19.86 0-39.252-1.823-57.813-5.344 5.703-10.683 11.8-22.94 17.614-35.032 9.115 12.342 23.751 20.363 40.229 20.363 9.109 0 17.648-2.462 25.011-6.738.476-.146 107.28-51.549 123.424-68.242 9.288-9.604 14.283-22.252 14.065-35.615-.219-13.364-5.624-25.842-15.222-35.137-19.81-19.188-51.527-18.669-70.7 1.156-8.13 8.407-22.987 37.075-36.35 64.867-2.892-3.916-6.343-7.392-10.229-10.32v-90.101h205.92c-1.432 54.653-21.801 101.769-59.054 137.062zm-126.983-10.255c16.064-34.38 33.857-69.875 41.07-77.333 5.876-6.075 13.714-9.129 21.562-9.129 7.518 0 15.043 2.802 20.859 8.435 5.758 5.577 9.001 13.064 9.132 21.082s-2.866 15.607-8.438 21.369c-7.858 8.125-48.559 29.906-84.947 48.178.571-3.02.882-6.131.882-9.315 0-1.105-.049-2.199-.12-3.287z" data-original="#000000" class="" style="fill:#000000"/><path d="m224 116.049c5.51 0 10-4.483 10-10.007 0-5.514-4.49-10.007-10-10.007s-10 4.493-10 10.007c0 5.523 4.49 10.007 10 10.007z" data-original="#000000" class="" style="fill:#000000"/><path d="m59.39 347.165c-2.439 0-4.78.89-6.609 2.492-4.131 3.653-4.54 9.987-.891 14.13 1.891 2.151 4.63 3.393 7.5 3.393 2.43 0 4.78-.881 6.61-2.492 2-1.771 3.2-4.213 3.37-6.875.17-2.672-.71-5.244-2.471-7.255-1.899-2.153-4.639-3.393-7.509-3.393z" data-original="#000000" class="" style="fill:#000000"/><path d="m127.988 248.428c-4.429-3.304-10.693-2.388-13.993 2.043-11.896 15.973-20.942 33.671-26.886 52.603-1.744 5.555-3.229 11.262-4.411 16.962-1.123 5.412 2.35 10.709 7.758 11.833.686.143 1.369.211 2.043.211 4.64 0 8.801-3.249 9.781-7.974 1.049-5.052 2.364-10.111 3.909-15.034 5.27-16.782 13.29-32.475 23.841-46.641 3.301-4.431 2.387-10.701-2.042-14.003z" data-original="#000000" class="" style="fill:#000000"/><path d="m130.876 332.131c.887.243 1.777.36 2.654.36 4.391 0 8.418-2.917 9.637-7.359 4.677-17.039 13.365-33.085 25.126-46.404 3.656-4.142 3.266-10.466-.873-14.125-4.137-3.659-10.458-3.268-14.115.873-13.769 15.594-23.943 34.39-29.423 54.356-1.463 5.329 1.668 10.836 6.994 12.299z" data-original="#000000" class="" style="fill:#000000"/><ellipse cx="256" cy="355.921" rx="10" ry="10.007" data-original="#000000" class="" style="fill:#000000"/></g> </svg>
