<?xml version="1.0"?>
<svg xmlns="http://www.w3.org/2000/svg" height="512px" viewBox="0 0 64 64" width="512px" class=""><g><g id="Filled_outline" data-name="Filled outline"><path d="m27 28h1.5l-6.5-2-4 18h17v-6a20.687 20.687 0 0 0 -8 2z" fill="#cdeef6" data-original="#CDEEF6" class="" style="fill:#7AD6F4" data-old_color="#cdeef6"/><path d="m61 49-13.143 4 1.143-4 12-2z" fill="#b5554e" data-original="#B5554E" class="active-path" style="fill:#797FF7" data-old_color="#b5554e"/><path d="m7.889 53h-4.889v-4h4z" fill="#b5554e" data-original="#B5554E" class="active-path" style="fill:#797FF7" data-old_color="#b5554e"/><path d="m40 61h-27a4.113 4.113 0 0 1 -4-3l-2-9h42l-2 7a6.881 6.881 0 0 1 -7 5z" fill="#66342e" data-original="#66342E" class=""/><g fill="#f9bb4b"><path d="m12 49h4v4h-4z" data-original="#F9BB4B" class="" style="fill:#797FF7" data-old_color="#F9BB4B"/><path d="m21 49h4v4h-4z" data-original="#F9BB4B" class="" style="fill:#797FF7" data-old_color="#F9BB4B"/><path d="m30 49h4v4h-4z" data-original="#F9BB4B" class="" style="fill:#797FF7" data-old_color="#F9BB4B"/><path d="m39 49h4v4h-4z" data-original="#F9BB4B" class="" style="fill:#797FF7" data-old_color="#F9BB4B"/><path d="m27 56h2v2h-2z" data-original="#F9BB4B" class="" style="fill:#797FF7" data-old_color="#F9BB4B"/><path d="m31 56h2v2h-2z" data-original="#F9BB4B" class="" style="fill:#797FF7" data-old_color="#F9BB4B"/><path d="m23 56h2v2h-2z" data-original="#F9BB4B" class="" style="fill:#797FF7" data-old_color="#F9BB4B"/></g><path d="m14 44h-11l4-18 7 4z" fill="#92cdde" data-original="#92CDDE" class="" style="fill:#1CA7EC" data-old_color="#92cdde"/><path d="m20 24h-12l2-6h8z" fill="#92cdde" data-original="#92CDDE" class="" style="fill:#1CA7EC" data-old_color="#92cdde"/><path d="m19 14h-10l2-6h6z" fill="#92cdde" data-original="#92CDDE" class="" style="fill:#1CA7EC" data-old_color="#92cdde"/><path d="m41 24h-12l2-6h8z" fill="#cdeef6" data-original="#CDEEF6" class="" style="fill:#7AD6F4" data-old_color="#cdeef6"/><path d="m40 14h-10l2-6h6z" fill="#cdeef6" data-original="#CDEEF6" class="" style="fill:#7AD6F4" data-old_color="#cdeef6"/><path d="m41 28h-14v12a20.687 20.687 0 0 1 8-2 18.543 18.543 0 0 1 6 1.173z" fill="#92cdde" data-original="#92CDDE" class="" style="fill:#1CA7EC" data-old_color="#92cdde"/><path d="m45 38v-9.364l-4-4.636v21a12.365 12.365 0 0 1 11-4l-3.8-5.878a9.134 9.134 0 0 0 -3.2 2.878z" fill="#cdeef6" data-original="#CDEEF6" class="" style="fill:#7AD6F4" data-old_color="#cdeef6"/><path d="m45 20v18s3-5 10-4z" fill="#92cdde" data-original="#92CDDE" class="" style="fill:#1CA7EC" data-old_color="#92cdde"/><path d="m55.908 33.581a1.7 1.7 0 0 0 -.095-.162l-10-14c-.014-.021-.044-.06-.044-.06l-4.881-5.859-1.94-5.819a1 1 0 0 0 -.948-.681h-2v-2h-2v2h-2a1 1 0 0 0 -.948.684l-2 6a1 1 0 0 0 .948 1.316h4v2h-3a1 1 0 0 0 -.948.684l-2 6a1 1 0 0 0 .948 1.316h5v2h-5.349l-6.357-1.956a1 1 0 0 0 -1.271.739l-3.949 17.773-2.074 2.593v-21.149h5a1 1 0 0 0 .948-1.316l-2-6a1 1 0 0 0 -.948-.684h-3v-2h4a1 1 0 0 0 .948-1.316l-2-6a1 1 0 0 0 -.948-.684h-2v-2h-2v2h-2a1 1 0 0 0 -.948.684l-2 6a1 1 0 0 0 .948 1.316h4v2h-3a1 1 0 0 0 -.948.684l-2 6a1 1 0 0 0 .948 1.316h5v3.277l-5.5-3.145a1 1 0 0 0 -1.473.651l-4 18a1 1 0 0 0 .973 1.217h10v3h-10a1 1 0 0 0 -1 1v4a1 1 0 0 0 1 1h4.087l.943 4.242a5.121 5.121 0 0 0 4.97 3.758h27a7.875 7.875 0 0 0 7.962-5.726l.707-2.475 12.622-3.842a1 1 0 0 0 .709-.957v-2a1.813 1.813 0 0 0 -.092-.419zm-51.908 18.419v-2h2.2l.444 2zm50.332-17.06 4.275 9.26-5.88-3.92-3.067-4.74a9.786 9.786 0 0 1 4.672-.6zm-8.332-11.82 6.962 9.747a10.827 10.827 0 0 0 -6.962 2.542zm0 15.192a8.2 8.2 0 0 1 1.4-1.443c.007-.006.453-.343.5-.374l2.182 3.371a12.915 12.915 0 0 0 -4.082.682zm-6.469-23.312 4.469 5.363v5.584l-2.114-2.447-1.938-5.812a1 1 0 0 0 -.948-.688h-3v-2zm.469 33 1.78-2.374a10.468 10.468 0 0 1 2.22-1.896v4.27zm2 2v2h-2v-2zm-4.5-2h-1.5v-8.953a18.228 18.228 0 0 1 4 .843v4.777zm.5 2v2h-3v-2zm2-23h-4v-2h4zm2 15.689v-16l2 2.319v12.4a14.088 14.088 0 0 0 -2 1.281zm-10.612-29.689 1.333-4h4.558l1.333 4zm-1 10 1.333-4h6.558l1.333 4zm-2.388 6h12v8.8a18.138 18.138 0 0 0 -5-.8 20.163 20.163 0 0 0 -7 1.478zm-.283 11.768a20.49 20.49 0 0 1 6.283-1.721v3.953h-7.523zm-4.017 7.232 1.667-3h8.633v3zm9.3 2v2h-2v-2zm-4 0v2h-3v-2zm-5 0v2h-2v-2zm-1.259-22.726 3.259 1v11.467l-1.81 3.259h-4.943zm-4.26 17.726h4.6l-1.667 3h-5.333zm1.519 5v2h-3v-2zm-9.612-37 1.333-4h4.558l1.333 4zm-1 10 1.333-4h6.558l1.333 4zm-5.141 20 3.435-15.459 5.318 3.039v12.42zm8.753 7h2v2h-2zm-4.753 0h2.753v2h-2.309zm37.805 5.684a5.912 5.912 0 0 1 -6.052 4.316h-27a3.093 3.093 0 0 1 -3.023-2.217l-.841-3.783h37.4zm1.048-3.684h-3.1v-2h3.674zm-1.1-4v-5.318a11.157 11.157 0 0 1 5.653-.711l6.688 4.458-9.423 1.571zm14 .259-10.676 3.25.464-1.626 10.212-1.702z" data-original="#000000" class="" style="fill:#000000"/><path d="m27 56h2v2h-2z" data-original="#000000" class="" style="fill:#000000"/><path d="m31 56h2v2h-2z" data-original="#000000" class="" style="fill:#000000"/><path d="m23 56h2v2h-2z" data-original="#000000" class="" style="fill:#000000"/><path d="m32 32h2v2h-2z" data-original="#000000" class="" style="fill:#000000"/><path d="m36 32h2v2h-2z" data-original="#000000" class="" style="fill:#000000"/></g></g> </svg>
