<?xml version="1.0"?>
<svg xmlns="http://www.w3.org/2000/svg" height="512px" viewBox="0 0 64 64" width="512px" class=""><g><g id="Filled_outline" data-name="Filled outline"><path d="m3 43v2l5 2v1s-2 2.791-2 5 2 5 2 5h38a3 3 0 0 0 3-3v-12z" fill="#394d5c" data-original="#394D5C" class="" style="fill:#66342E" data-old_color="#394d5c"/><path d="m61 41-12 6v-4l12-4z" fill="#f9bb4b" data-original="#F9BB4B" class="" style="fill:#797FF7" data-old_color="#f9bb4b"/><path d="m8 58h38a3 3 0 0 0 3-3v-1h-42.88a12.963 12.963 0 0 0 1.88 4z" fill="#7d8d9c" data-original="#7D8D9C" class="" style="fill:#66342E" data-old_color="#7d8d9c"/><path d="m17 39h18v4h-18z" fill="#f9bb4b" data-original="#F9BB4B" class="" style="fill:#797FF7" data-old_color="#f9bb4b"/><g fill="#cfdfe8"><path d="m36 10h6v6h-6z" data-original="#CFDFE8" class="active-path" style="fill:#1CA7EC" data-old_color="#CFDFE8"/><path d="m35 20h8v6h-8z" data-original="#CFDFE8" class="active-path" style="fill:#1CA7EC" data-old_color="#CFDFE8"/><path d="m48.8 33.837 9.2-.837s-7-6-11-13v12.4z" data-original="#CFDFE8" class="active-path" style="fill:#1CA7EC" data-old_color="#CFDFE8"/></g><path d="m44 30v9l10-1z" fill="#aabece" data-original="#AABECE" class="" style="fill:#7AD6F4" data-old_color="#aabece"/><path d="m44 39-5 4v-17l5 4" fill="#cfdfe8" data-original="#CFDFE8" class="active-path" style="fill:#1CA7EC" data-old_color="#cfdfe8"/><path d="m39 39h-14v-18l10 3v2h4z" fill="#aabece" data-original="#AABECE" class="" style="fill:#7AD6F4" data-old_color="#aabece"/><path d="m25 8v8h11s-8-3-11-8z" fill="#cfdfe8" data-original="#CFDFE8" class="active-path" style="fill:#1CA7EC" data-old_color="#cfdfe8"/><path d="m25 35-22-2a21.084 21.084 0 0 0 6-16l16 2z" fill="#cfdfe8" data-original="#CFDFE8" class="active-path" style="fill:#1CA7EC" data-old_color="#cfdfe8"/><path d="m25 12-13-3s1 5-1 8l14 2z" fill="#aabece" data-original="#AABECE" class="" style="fill:#7AD6F4" data-old_color="#aabece"/><path d="m61.9 38.553-3.009-6a1 1 0 0 0 -.235-.316c-.069-.059-6.919-5.975-10.783-12.737a1 1 0 0 0 -.873-.5h-7v-2h2a1 1 0 0 0 1-1v-5h2v-2h-5v-2h-2v2h-5v2h2v3.488a25.231 25.231 0 0 1 -8.014-5.488h2.014v-2h-3v-2h-2v2h-2v2h2v1.743l-11.775-2.718a1 1 0 0 0 -1.206 1.175c.009.045.823 4.316-.685 6.964l-1.21-.151a1 1 0 0 0 -1.118 1.1 20.157 20.157 0 0 1 -5.713 15.18 1 1 0 0 0 .617 1.707l2.311.21 1.559 7.79h-3.78a1 1 0 0 0 -1 1v2a1 1 0 0 0 .628.929l4.372 1.748v.012c-.55.824-2 3.2-2 5.311 0 2.459 1.963 5.271 2.187 5.582a1 1 0 0 0 .813.418h38a4 4 0 0 0 4-4v-7.382l11.447-5.718a1 1 0 0 0 .553-.9v-2a1 1 0 0 0 -.107-.447zm-4.484-4.495 2.179 4.358-2.109.7-6.12-4.511zm-9.416-10.628a61.172 61.172 0 0 0 7.654 8.779l-6.547.6-1.107-.89zm3.46 13.819-6.46.651v-5.819zm-7.46-11.249v-5h2v9.319l-4.149-3.319h1.149a1 1 0 0 0 1-1zm-1 4.481v8.038l-3 2.4v-12.838zm-1-9.481v4h-6v-4zm-5-10h4v4h-4zm-11-.115a24.7 24.7 0 0 0 5.571 4.115h-5.571zm0 6.115h12v2h-6v2h2v1.656l-8-2.4zm0 5.344 8 2.4v1.256a1 1 0 0 0 1 1h3v11h-12zm12 17.656v2h-2v-2zm-4 0v2h-16v-2zm-17-2a1 1 0 0 0 -1 1v3h-7.18l-1.52-7.6 16.7 1.513v2.087zm-3.819-27.7 10.819 2.5v5.051l-11.472-1.643a13.6 13.6 0 0 0 .653-5.908zm-8.09 21.886a22.127 22.127 0 0 0 4.963-14.046l13.946 1.743v14.022zm40.909 24.814h-37.466a13.556 13.556 0 0 1 -1.044-2h40.51a2 2 0 0 1 -2 2zm2-10h-12v2h12v4h-41c0-1.541 1.309-3.712 1.813-4.418a.988.988 0 0 0 .111-.22l1.76.586a1 1 0 0 0 .316.052h9v-2h-8.838l-7.162-2.677v-.323h44zm.839-5h-6.988l2.543-2.034 9.349-.935 1.335.889zm1.161 3.382v-1.661l9.967-3.321z" data-original="#000000" class=""/><path d="m32 47h2v2h-2z" data-original="#000000" class=""/><path d="m28 47h2v2h-2z" data-original="#000000" class=""/><path d="m28.385 26.212a1 1 0 0 0 -.385.788v5h2v-3.719l2.757.689.486-1.94-4-1a1 1 0 0 0 -.858.182z" data-original="#000000" class=""/><path d="m21.124 21.008-8-1-.248 1.984 7.124.891v4.117h2v-5a1 1 0 0 0 -.876-.992z" data-original="#000000" class=""/><path d="m20 29h2v2h-2z" data-original="#000000" class=""/></g></g> </svg>
