<svg height="512" viewBox="0 0 64 64" width="512" xmlns="http://www.w3.org/2000/svg"><g id="Filled_outline" data-name="Filled outline"><path d="m58 55c-1.355 2.71-3.97 5-7 5h-39c-1.889 0-3.867-1.489-5-3l-4-5 58-4z" fill="#50b4f8"/><path d="m6.033 55.791 53.201-3.669 1.766-4.122-58 4z" fill="#195c85"/><path d="m47 48.966v-3.966h-26l-1.965 5.894z" fill="#87cee9"/><path d="m32 5a2 2 0 0 1 2 2v38a0 0 0 0 1 0 0h-4a0 0 0 0 1 0 0v-38a2 2 0 0 1 2-2z" fill="#50b4f8"/><path d="m30 41h-20l20-32z" fill="#ffd782"/><path d="m34 41h20l-20-32z" fill="#ffd782"/><path d="m6.2 57.6c1.176 1.568 3.4 3.4 5.8 3.4h39c3.108 0 6.208-2.18 7.9-5.553l.024-.053 3-7a1 1 0 0 0 -.992-1.394l-12.932.894v-2.894a1 1 0 0 0 -1-1h-12v-2h19a1 1 0 0 0 .848-1.53l-19.848-31.756v-1.714a3 3 0 0 0 -6 0v1.714l-19.848 31.756a1 1 0 0 0 .848 1.53h19v2h-8a1 1 0 0 0 -.948.684l-1.752 5.259-15.368 1.057a1 1 0 0 0 -.713 1.623zm28.8-45.113 17.2 27.513h-17.2zm22.093 42.092c-1.031 2.045-3.239 4.421-6.093 4.421h-39c-1.432 0-3-1.158-3.988-2.343l49.658-3.425zm-26.093-47.579a1 1 0 0 1 2 0v37h-2zm-19.195 33 17.195-27.513v7.513h-2v2h2v3h-2v2h2v3h-2v2h2v3h-2v2h2v3zm9.916 6h24.279v2.032l-25.544 1.761zm37.716 3.11-.882 2.057-52.068 3.59-1.513-1.891z"/><path d="m47.848 36.47-5-8-1.7 1.06 4.052 6.47h-3.2v2h5a1 1 0 0 0 .848-1.53z"/><path d="m38 36h2v2h-2z"/></g></svg>