<?xml version="1.0"?>
<svg xmlns="http://www.w3.org/2000/svg" height="512px" viewBox="0 0 64 64" width="512px" class=""><g><g id="Filled_outline" data-name="Filled outline"><path d="m58.893 41h-3.893l-6 3h-44a2 2 0 0 0 -2 2 2 2 0 0 0 2 2h3l2.333 4h38.667l8-7h2a2 2 0 0 0 1.973-2.336 2.075 2.075 0 0 0 -2.08-1.664z" fill="#dc6c54" data-original="#DC6C54" class="" style="fill:#66342E" data-old_color="#dc6c54"/><path d="m16 40h18v4h-18z" fill="#f9bb4b" data-original="#F9BB4B" class="active-path" style="fill:#7AD6F4" data-old_color="#f9bb4b"/><path d="m38 26a10 10 0 0 0 -8.045-9.806c-.345 1.395-2.924 10.206-13.955 14.806 0 0 12 5 22 5z" fill="#ad6327" data-original="#AD6327" class="" style="fill:#1CA7EC" data-old_color="#ad6327"/><path d="m28 12v4a10 10 0 0 1 10 10v18h4v-18a14 14 0 0 0 -14-14z" fill="#7fcac9" data-original="#7FCAC9" class="" style="fill:#797FF7" data-old_color="#7fcac9"/><path d="m5 49h2.426l2.044 3.5a1 1 0 0 0 .863.5h38.667a1 1 0 0 0 .659-.247l7.717-6.753h1.624a3 3 0 0 0 2.959-3.5 3.082 3.082 0 0 0 -3.066-2.5h-3.893a1 1 0 0 0 -.447.1l-5.789 2.9h-5.764v-17a15.017 15.017 0 0 0 -15-15 1 1 0 0 0 -1 1v4a1 1 0 0 0 1 1c.222 0 .44.017.658.033-.96 2.8-4.072 9.306-13.043 13.044a1 1 0 0 0 0 1.846c.481.2 11.537 4.761 21.385 5.061v6.016h-2v-3a1 1 0 0 0 -1-1h-18a1 1 0 0 0 -1 1v3h-10a3 3 0 0 0 0 6zm16 2h-2v-2h2zm4 0h-2v-2h2zm4 0h-2v-2h2zm0-37.962a13.018 13.018 0 0 1 12 12.962v17h-2v-17a11.015 11.015 0 0 0 -10-10.955zm-10.431 17.872a23.79 23.79 0 0 0 12.076-13.51 9.015 9.015 0 0 1 6.355 8.6v8.978c-6.947-.228-14.728-2.728-18.431-4.068zm-1.569 10.09h16v2h-16zm-12 4h44a1 1 0 0 0 .447-.1l5.789-2.9h3.657a1.086 1.086 0 0 1 1.093.824 1 1 0 0 1 -.986 1.176h-2a1 1 0 0 0 -.659.247l-7.717 6.753h-17.624v-2h2v-2h-18v2h2v2h-6.092l-2.044-3.5a1 1 0 0 0 -.864-.5h-3a1 1 0 0 1 0-2z" data-original="#000000" class=""/><path d="m11 47h2v2h-2z" data-original="#000000" class=""/><path d="m35 47h2v2h-2z" data-original="#000000" class=""/><path d="m39 47h2v2h-2z" data-original="#000000" class=""/><path d="m32.316 20.052-.658 1.887c.09.037 2.183.932 1.356 5.9l1.972.328c1.128-6.767-2.514-8.067-2.67-8.115z" data-original="#000000" class=""/><path d="m33 30h2v2h-2z" data-original="#000000" class=""/></g></g> </svg>
