<?xml version="1.0"?>
<svg xmlns="http://www.w3.org/2000/svg" height="512px" viewBox="0 0 64 64" width="512px" class=""><g><g id="Filled_outline" data-name="Filled outline"><path d="m40 56h-30c-1.515 0-3.322-.645-4-2l-3-6 48-2-3 6c-1.446 2.41-5.19 4-8 4z" fill="#66342e" data-original="#66342E" class="" style="fill:#66342E"/><path d="m51 46-2.5 5 12.5-5v-2z" fill="#f9bb4b" data-original="#F9BB4B" class="" style="fill:#797FF7" data-old_color="#f9bb4b"/><path d="m50.667 46.667.131-.659-47.798 1.992 1.958 3.917 44.02-1.874z" fill="#ad6327" data-original="#AD6327" class="active-path" style="fill:#7AD6F4" data-old_color="#ad6327"/><g fill="#b11e48"><path d="m18 42h-12l12-22z" data-original="#B11E48" class="" style="fill:#1CA7EC" data-old_color="#B11E48"/><path d="m34 42h-12l12-30z" data-original="#B11E48" class="" style="fill:#1CA7EC" data-old_color="#B11E48"/><path d="m34 42 19-4-19-26a35.548 35.548 0 0 1 4 16c0 9-4 14-4 14z" data-original="#B11E48" class="" style="fill:#1CA7EC" data-old_color="#B11E48"/></g><path d="m60.8 43.02-2.142.428.106-.089-4.98-5.976-18.784-25.71v-2.673h-2v2.807l-11.929 29.822a1 1 0 0 0 .929 1.371h4.234l-1.866 3.109-5.368.224v-29.333h-2v2.745l-11.878 21.776a1 1 0 0 0 .878 1.479h3.132l-2.568 3.851-3.606.149a1 1 0 0 0 -.853 1.446l3 6c.882 1.765 3.095 2.554 4.895 2.554h30c3.031 0 7.172-1.678 8.9-4.553l.329-.659 12.148-4.859a1 1 0 0 0 .623-.929v-2a1 1 0 0 0 -1.2-.98zm-9.525-5.68-15.191 3.2a26.744 26.744 0 0 0 2.916-12.54 35.141 35.141 0 0 0 -1.273-9.2zm-16.275-20.527a34.071 34.071 0 0 1 2 11.187 25.569 25.569 0 0 1 -2 10.14zm0 26 17.617-3.713 3.967 4.76-5.704 1.14-15.88.666zm-11.523-1.813 9.523-23.808v23.808zm9.523 2v2.749l-6.239.26 1.805-3.009zm-25.315-2 9.315-17.078v17.078zm3.85 2h5.465v3.416l-7.963.332zm35.608 8.485c-1.262 2.103-4.712 3.515-7.143 3.515h-30a3.58 3.58 0 0 1 -3.1-1.447l-.352-.7 40.785-1.736zm1.2-2.416-42.78 1.821-.978-1.955 44.762-1.866zm11.657-3.746-9.429 3.777 1.105-2.21 8.324-1.67z" data-original="#000000" class="" style="fill:#000000"/><path d="m41.165 37.986 6-1a1 1 0 0 0 .616-1.611l-4-5-1.562 1.25 2.935 3.669-4.319.72z" data-original="#000000" class="" style="fill:#000000"/><path d="m14.143 32.485-3 5a1 1 0 0 0 .857 1.515h3v-2h-1.234l2.091-3.485z" data-original="#000000" class="" style="fill:#000000"/><path d="m27 37h2v2h-2z" data-original="#000000" class="" style="fill:#000000"/><path d="m29 33h2v2h-2z" data-original="#000000" class="" style="fill:#000000"/></g></g> </svg>
