<?xml version="1.0"?>
<svg xmlns="http://www.w3.org/2000/svg" xmlns:xlink="http://www.w3.org/1999/xlink" version="1.1" id="Layer_1" x="0px" y="0px" viewBox="0 0 512 512" style="enable-background:new 0 0 512 512;" xml:space="preserve" width="512px" height="512px" class=""><g><path d="M480.427,273.237l-145.152-30.208l46.592-76.459c2.133-3.413,1.536-7.765-1.28-10.496  c-2.816-2.816-7.168-3.243-10.496-1.195l-74.069,46.507L263.595,7.083C262.912,2.987,259.328,0,255.147,0s-7.765,3.072-8.448,7.168  l-31.061,194.133l-75.52-46.421c-3.328-2.133-7.68-1.536-10.496,1.28c-2.816,2.816-3.243,7.168-1.195,10.496l48.213,76.373  L31.573,273.237c-4.011,0.853-6.827,4.352-6.827,8.363s2.816,7.509,6.827,8.363l145.067,30.208l-48.213,76.373  c-2.048,3.328-1.621,7.68,1.195,10.496c1.621,1.707,3.84,2.56,6.059,2.56c1.536,0,3.072-0.427,4.437-1.28l77.141-47.36  l29.525,144.213c0.853,3.925,4.267,6.827,8.363,6.827c4.011,0,7.509-2.816,8.363-6.741L294.4,360.789l75.691,47.531  c1.365,0.853,2.987,1.28,4.523,1.28c2.219,0,4.352-0.853,5.973-2.475c2.816-2.731,3.413-7.083,1.28-10.496l-46.592-76.459  l145.152-30.208c4.011-0.853,6.827-4.352,6.827-8.363S484.437,274.091,480.427,273.237z M162.475,188.672l50.261,30.805  l-2.645,16.555l-15.701,3.328c-0.171-0.256-0.171-0.512-0.256-0.683L162.475,188.672z M214.869,252.501l20.565,20.565H116.053  L214.869,252.501z M213.163,343.467l-50.688,31.061l31.659-50.005c0.085-0.171,0.085-0.427,0.256-0.683l15.957,3.328l3.328,16.128  C213.504,343.381,213.333,343.381,213.163,343.467z M214.869,310.699l-98.816-20.565h119.381L214.869,310.699z M246.613,419.243  l-19.712-96.427l19.712-19.797V419.243z M246.613,260.181l-19.883-19.968l19.883-129.28V260.181z M348.416,188.672l-30.549,50.091  c-0.171,0.171-0.171,0.341-0.256,0.597l-15.787-3.328l-2.731-16.469L348.416,188.672z M263.68,111.275l21.589,129.024  l-21.589,21.589V111.275z M263.68,422.827V301.312l20.395,20.48c0.341,0.256,0.768,0.427,1.109,0.683L263.68,422.827z   M348.416,374.528l-49.493-31.061c-0.256-0.085-0.512-0.171-0.768-0.256l3.413-15.957l16.043-3.413  c0.085,0.256,0.085,0.427,0.256,0.597L348.416,374.528z M296.875,310.784c-0.256-0.341-0.427-0.768-0.683-1.109l-19.627-19.541  h119.381L296.875,310.784z M276.565,273.067l20.565-20.565l98.816,20.565H276.565z" data-original="#000000" class="active-path" style="fill:#000000" data-old_color="#000000"/><g>
	<path style="fill:#797FF7" d="M212.736,219.477l-2.645,16.555l-15.701,3.328c-0.171-0.256-0.171-0.512-0.256-0.683l-31.659-50.005   L212.736,219.477z" data-original="#311B92" class="" data-old_color="#311B92"/>
	<path style="fill:#797FF7" d="M213.675,343.296c-0.171,0.085-0.341,0.085-0.512,0.171l-50.688,31.061l31.659-50.005   c0.085-0.171,0.085-0.427,0.256-0.683l15.957,3.328L213.675,343.296z" data-original="#311B92" class="" data-old_color="#311B92"/>
	<path style="fill:#797FF7" d="M348.416,374.528l-49.493-31.061c-0.256-0.085-0.512-0.171-0.768-0.256l3.413-15.957l16.043-3.413   c0.085,0.256,0.085,0.427,0.256,0.597L348.416,374.528z" data-original="#311B92" class="" data-old_color="#311B92"/>
	<path style="fill:#797FF7" d="M348.416,188.672l-30.549,50.091c-0.171,0.171-0.171,0.341-0.256,0.597l-15.787-3.328l-2.731-16.469   L348.416,188.672z" data-original="#311B92" class="" data-old_color="#311B92"/>
</g><path style="fill:#797FF7" d="M395.947,290.133l-99.072,20.651c-0.256-0.341-0.427-0.768-0.683-1.109l-19.627-19.541H395.947z" data-original="#5E35B1" class="" data-old_color="#5E35B1"/><polygon style="fill:#797FF7" points="395.947,273.067 276.565,273.067 297.131,252.501 " data-original="#311B92" class="" data-old_color="#311B92"/><polygon style="fill:#797FF7" points="285.269,240.299 263.68,261.888 263.68,111.275 " data-original="#5E35B1" class="" data-old_color="#5E35B1"/><polygon style="fill:#797FF7" points="246.613,110.933 246.613,260.181 226.731,240.213 " data-original="#311B92" class="" data-old_color="#311B92"/><polygon style="fill:#797FF7" points="235.435,273.067 116.053,273.067 214.869,252.501 " data-original="#5E35B1" class="" data-old_color="#5E35B1"/><polygon style="fill:#797FF7" points="235.435,290.133 214.869,310.699 116.053,290.133 " data-original="#311B92" class="" data-old_color="#311B92"/><polygon style="fill:#797FF7" points="246.613,303.019 246.613,419.243 226.901,322.816 " data-original="#5E35B1" class="" data-old_color="#5E35B1"/><path style="fill:#797FF7" d="M285.184,322.475L263.68,422.827V301.312l20.395,20.48  C284.416,322.048,284.843,322.219,285.184,322.475z" data-original="#311B92" class="" data-old_color="#311B92"/></g> </svg>
